<svg width="573" height="765" viewBox="0 0 573 765" fill="none" xmlns="http://www.w3.org/2000/svg">
<path fill-rule="evenodd" clip-rule="evenodd" d="M277.052 3.56177C275.554 4.42839 274.181 5.49472 272.97 6.73145C271.089 8.65258 269.636 10.9493 268.704 13.4712L1.45555 738.855C0.0740167 742.596 -0.100586 746.677 0.956288 750.523C2.01316 754.37 4.24839 757.788 7.34798 760.299C10.4476 762.809 14.2558 764.286 18.2377 764.521C22.2195 764.756 26.175 763.737 29.5483 761.609L286.62 599.526L543.684 761.622C547.058 763.757 551.016 764.78 555.002 764.548C558.987 764.315 562.8 762.839 565.902 760.327C569.005 757.814 571.242 754.392 572.298 750.542C573.354 746.692 573.177 742.608 571.791 738.864L304.535 13.4674C303.572 10.8569 302.049 8.48848 300.075 6.52812C298.1 4.56775 295.72 3.06286 293.103 2.1188C290.485 1.17475 287.693 0.814362 284.922 1.06293C282.15 1.3115 279.46 2.16701 277.052 3.56177Z" fill="#8BE385"/>
</svg>
